<svg width="26" height="24.354" viewBox="0 0 26 24.354" fill="none" xmlns="http://www.w3.org/2000/svg"><path d="M19.42 12.93c.47-.49.92-.95 1.36-1.4.59-.61 1.16-1.23 1.77-1.82.63-.61 1.39-.75 2.2-.41.81.33 1.21.98 1.24 1.84.02.49-.15.94-.47 1.32-1.5 1.79-2.98 3.59-4.5 5.37-.63.75-1.48 1.17-2.44 1.35-.31.05-.64.07-.96.07-2.19.01-4.39.01-6.58.01-.46 0-.85.15-1.18.48-.12.13-.26.24-.38.38-.04.04-.07.13-.06.19.12.59-.02 1.1-.45 1.52-.8.78-1.59 1.56-2.38 2.34-.24.24-.53.24-.77-.01l-5.07-5.1c-.19-.19-.38-.38-.57-.58-.24-.23-.25-.52-.02-.75l2.07-2.07c.08-.09.17-.18.26-.27.35-.37.78-.56 1.3-.51.1.01.15-.01.2-.1 1.08-1.85 2.73-2.84 4.84-3.08 1.13-.13 2.23.01 3.29.43.07.03.15.03.23.03 1.81 0 3.61.01 5.41 0 .64 0 1.16.21 1.59.67.03.02.04.05.07.1Zm-10.6 6.5c.12-.16.22-.3.34-.41.43-.44.95-.71 1.56-.75.63-.03 1.27-.02 1.91-.02 1.71 0 3.43 0 5.14-.01 1 0 1.86-.35 2.51-1.1.83-.95 1.63-1.93 2.44-2.9.68-.82 1.37-1.64 2.05-2.46.34-.42.27-1.04-.13-1.39a1.02 1.02 0 0 0-1.39.05c-1.08 1.11-2.16 2.22-3.24 3.32-.11.11-.15.22-.14.38.07 1.06-.85 2.06-1.92 2.07-1.41.01-2.82 0-4.23 0-.08 0-.16-.02-.23-.05-.22-.1-.32-.32-.27-.56.05-.24.23-.39.49-.39.43-.01.85 0 1.28 0 .96 0 1.92 0 2.87-.01.42 0 .8-.26.94-.64.14-.41.07-.79-.24-1.1-.21-.21-.47-.29-.76-.29-1.72 0-3.45-.01-5.18 0-.4.01-.78-.02-1.14-.2-.07-.03-.14-.05-.22-.07-.88-.27-1.77-.31-2.68-.15-1.61.27-2.87 1.08-3.71 2.51-.06.11-.04.17.04.26.92.91 1.84 1.83 2.76 2.75.36.36.72.73 1.15 1.16Zm-2.61 3.69c.03-.03.06-.05.08-.07l1.97-1.94c.27-.27.27-.55 0-.82l-4.22-4.22c-.25-.25-.55-.25-.8 0-.28.27-.55.55-.82.82-.4.4-.8.79-1.21 1.2 1.68 1.69 3.33 3.36 5 5.03Z" fill="#A6192E"/><path d="M20.71 5.59c-.02 3.1-2.52 5.58-5.59 5.57-3.05-.01-5.58-2.47-5.57-5.59A5.561 5.561 0 0 1 15.16 0c3.07 0 5.58 2.54 5.55 5.59Zm-1 0C19.72 3.08 17.66 1 15.14 1c-2.54 0-4.58 2.05-4.59 4.6 0 2.44 2.06 4.54 4.49 4.55 2.59.01 4.66-2.01 4.67-4.56Z" fill="#A6192E"/><path d="M14.89 6.34v.61h1.43v.54h-1.43v.94h-.67v-.94h-.78v-.54h.78v-.61h-.78v-.58h.78V2.94h1.41c.37 0 .69.08.96.22s.47.34.61.6c.15.26.22.55.22.89 0 .33-.07.63-.22.88-.14.26-.34.46-.61.6-.27.14-.59.21-.96.21h-.74Zm0-2.81v2.23h.65c.41 0 .71-.1.89-.3.18-.2.27-.47.27-.81 0-.34-.09-.61-.28-.81-.18-.21-.47-.31-.88-.31h-.65Z" fill="#A6192E"/></svg>