<svg width="26" height="23.002" viewBox="0 0 26 23.002" fill="none" xmlns="http://www.w3.org/2000/svg"><path d="M26 8.23v4.06h-1.51v.2c0 2.72 0 5.44-.01 8.15 0 .18 0 .36-.04.54-.24 1.09-1.17 1.82-2.33 1.82-5.31 0-10.62 0-15.93-.01-.26 0-.52-.04-.76-.11-.99-.3-1.62-1.17-1.62-2.21-.01-2.73-.01-5.46-.01-8.19v-.18H2.3v-.08c0-1.41-.01-2.81 0-4.21.02-1.19 1.06-2.17 2.29-2.18h1.3c.07 0 .15.02.21.05 1.08.5 2.16 1.01 3.23 1.51.02.01.03.02.07.05H4.7c-.48 0-.75.26-.75.74v2.5h9.35V7.43h-.24c-.37 0-.74.04-1.1-.02-.72-.11-1.44-.25-2.15-.43-.99-.25-1.94-.59-2.85-1.05-.71-.36-1.45-.66-2.24-.83-.68-.15-1.36-.2-2.04-.04-.48.11-.92.31-1.27.67-.26.27-.67.32-1 .14a.792.792 0 0 1-.39-.89c.06-.25.24-.42.43-.57.77-.65 1.69-.95 2.7-1.03.91-.06 1.79.1 2.66.37.85.26 1.65.64 2.45 1.02.86.42 1.73.79 2.68.96.21.04.42.05.64.07-.01-.05-.01-.06-.02-.07-.51-.95-1.01-1.9-1.54-2.83-.24-.42-.55-.8-.93-1.11-.22-.18-.46-.22-.73-.17-.56.11-.96.44-1.3.85-.26.33-.46.68-.62 1.08-.53-.14-1.06-.28-1.6-.42.21-.44.46-.85.74-1.23C6.06 1.25 6.61.68 7.35.31 7.88.05 8.43-.08 9.02.04c.52.1.95.38 1.34.72.58.51 1.05 1.12 1.47 1.76.59.92 1.09 1.88 1.53 2.87.05.12.1.15.27.14.34-.02.68-.01 1.02.04.19.03.24.01.28-.12.31-.86.69-1.68 1.16-2.47.54-.88 1.17-1.69 2.01-2.32.68-.53 1.42-.78 2.31-.6 2.65.55 3.92 3.45 2.46 5.67-.02.03-.03.06-.05.1h.85c1.02 0 1.93.66 2.22 1.61.01.02.01.04.02.07.06.23.09.47.09.71v.01ZM13.31 12.3H5.46V20.67c0 .44.27.71.73.71h7.12V12.3Zm1.67 9.08h.15c2.31 0 4.62 0 6.94.01.42 0 .77-.27.77-.76-.01-2.72-.01-5.45-.01-8.17v-.16h-7.85v9.08Zm9.35-10.69v-.15c0-.79-.01-1.58 0-2.38.01-.4-.29-.72-.75-.72-2.81.01-5.63 0-8.44 0h-.16v3.25h9.35Zm-7.71-4.88c.05 0 .09.01.12.01h2.84c.17-.01.35-.02.51-.05 1.01-.21 1.73-1.08 1.73-2.07 0-.99-.72-1.84-1.72-2.06-.41-.09-.77-.03-1.06.29-.13.14-.27.27-.39.42-.83 1.06-1.39 2.27-2.03 3.46Z" fill="#A6192E"/></svg>