<svg width="21" height="21" viewBox="0 0 21 21" fill="none" xmlns="http://www.w3.org/2000/svg"><path d="M9.27 4.58c0 .93-.21 1.75-.63 2.45-.4.69-.96 1.22-1.66 1.59-.71.37-1.5.55-2.36.55-.86 0-1.65-.18-2.36-.55-.68-.37-1.24-.9-1.66-1.59-.4-.7-.6-1.52-.6-2.45 0-.92.2-1.73.6-2.42.42-.7.98-1.24 1.66-1.61C2.97.18 3.76 0 4.62 0c.86 0 1.65.18 2.36.55.7.37 1.26.91 1.66 1.61.42.69.63 1.5.63 2.42ZM15.45.3h2.64L5.54 20.69H2.9L15.45.3ZM6.98 4.58c0-.76-.23-1.37-.69-1.83-.44-.48-1-.72-1.67-.72-.65 0-1.21.24-1.67.72-.44.46-.66 1.07-.66 1.83s.22 1.39.66 1.87c.44.46 1 .69 1.67.69.67 0 1.23-.23 1.67-.69.46-.48.69-1.11.69-1.87ZM21 16.41c0 .92-.22 1.74-.64 2.44-.4.69-.95 1.22-1.66 1.59-.71.37-1.5.56-2.36.56-.86 0-1.65-.19-2.35-.56-.69-.37-1.25-.9-1.67-1.59-.4-.7-.6-1.52-.6-2.44 0-.93.2-1.74.6-2.42.42-.71.98-1.25 1.67-1.62.7-.37 1.49-.55 2.35-.55.86 0 1.65.18 2.36.55.71.37 1.26.91 1.66 1.62.42.68.64 1.49.64 2.42Zm-2.3 0c0-.76-.23-1.38-.69-1.84-.44-.48-1-.72-1.67-.72-.65 0-1.21.24-1.67.72-.44.46-.66 1.08-.66 1.84s.22 1.38.66 1.86c.45.46 1 .69 1.67.69.67 0 1.23-.23 1.67-.69.46-.48.69-1.1.69-1.86Z" fill="#A6192E"/></svg>