<svg width="26" height="23" viewBox="0 0 26 23" fill="none" xmlns="http://www.w3.org/2000/svg"><defs><clipPath id="a"><rect rx="-.566" width="24.869" height="21.869" transform="translate(.566 .566)" fill="#fff" fill-opacity="0"/></clipPath></defs><rect rx="-.566" width="24.869" height="21.869" transform="translate(.566 .566)" fill="none"/><g clip-path="url(#a)" fill="#A6192E"><path d="M26 10.11v.38c-.11.15-.24.27-.36.41-.04.03-.08.07-.11.12-.11.09-.22.2-.31.32l-.12.12c-.11.09-.22.2-.32.32-.04.03-.08.07-.11.12-.12.09-.22.2-.32.32l-.12.12c-.1.07-.18.18-.26.27l-.18.19c-.1.08-.2.18-.28.28l-.19.18-.24.26-.15.15c-.14.13-.27.26-.46.3h-.03c-.18 0-.35-.03-.49-.15-.09-.08-.17-.16-.26-.24l-.02-.02c-.12-.15-.26-.29-.4-.41l-.04-.06-.41-.41-.02-.03-.41-.41-.03-.03c-.41-.42-.82-.85-1.23-1.27-.14-.15-.28-.28-.39-.45-.08-.15-.06-.3.05-.43.09-.07.14-.2.27-.22h1.3c.18.01.35.01.52.01.05 0 .1 0 .07-.08-.04-.13-.04-.26-.1-.39l-.06-.2c-.03-.15-.08-.3-.14-.44-.09-.31-.22-.6-.37-.88-.13-.31-.3-.6-.49-.88-.08-.14-.18-.28-.29-.41v-.01c0-.01 0-.01-.01-.01a7.84 7.84 0 0 0-1.73-1.72l-.11-.07-.32-.22c-.26-.17-.52-.34-.82-.45-.29-.16-.59-.29-.91-.38-.14-.06-.29-.11-.44-.14-.16-.05-.32-.09-.49-.12h-.05c-.12-.05-.25-.06-.38-.08-.12-.02-.25-.05-.37-.04-.16-.04-.31-.03-.47-.05a2.67 2.67 0 0 0-.4 0c-.18 0-.35-.02-.52.02l-.23.01c-.34.03-.68.09-1.01.17-.16.01-.3.05-.45.11-.13.03-.27.07-.4.13-.14.03-.27.08-.4.15l-.03.01c-.17.05-.32.13-.47.21-.31.14-.6.3-.87.49-.08.04-.15.09-.22.15-.09.05-.17.11-.24.18-.13.08-.26.18-.37.29l-.06.06c-.44.36-.82.77-1.15 1.22-.06.06-.11.13-.16.21l-.01.03-.07.1a.2.2 0 0 0-.08.12c-.1.13-.19.27-.26.41-.05.11-.1.11-.2.07-.2-.08-.4-.15-.6-.23a.917.917 0 0 0-.23-.09c-.36-.14-.71-.29-1.08-.41-.11-.06-.24-.11-.37-.15l-.12-.05c-.11-.05-.22-.1-.34-.12-.09-.05-.24-.06-.12-.23.04-.05.08-.1.09-.17.06-.1.11-.2.17-.3h.01l-.01-.01.03-.04c.07-.09.13-.19.18-.3l.09-.14c.09-.1.16-.22.23-.34l.22-.31c.05-.03.09-.08.12-.14.28-.35.58-.7.89-1.02.38-.37.78-.73 1.19-1.05.06-.03.11-.07.15-.12l.2-.14.43-.3.1-.05c.12-.06.22-.14.33-.21.11-.05.22-.1.32-.17.04-.01.08-.03.11-.06l.47-.23c.11-.04.22-.09.32-.15l.08-.04c.13-.03.26-.08.38-.15l.98-.31.26-.07h.03c.01 0 .02-.01.03-.02l.06-.01.51-.11c.75-.12 1.5-.2 2.25-.19.49.01.97.06 1.45.11l.61.1.34.07.52.14.03.01.52.16.21.08.49.19.04.01.42.19c.11.06.21.12.33.16l.25.14.23.12.9.58c.05.05.11.09.17.12l.23.17c.34.29.68.58 1.01.89.36.36.68.74 1.01 1.13l.18.23.15.21c.08.12.16.23.24.35.01.04.03.07.05.09l.3.48c.01.05.04.09.07.13l.16.29c.01.06.04.11.07.15l.22.46c.01.06.03.11.07.15v.03c.01.01.01.02.02.03.01.01.01.02.01.03.06.14.12.29.17.43l.15.42c.01.01.02.03.02.05.04.14.08.28.13.41l.11.44.1.44c.03.17.06.35.08.53.01.11.06.15.17.14.11-.01.21-.01.31-.01h.86c.15-.02.25.05.31.17.03.06.07.08.13.1ZM13.34 23h-.11c-.02-.01-.04-.03-.05-.02-.71.01-1.42-.06-2.12-.16l-.15-.03-.08-.01-1.01-.25c-.08-.03-.17-.06-.26-.07l-.9-.33-.32-.14-.37-.17a.31.31 0 0 0-.13-.06l-.48-.26c0-.01-.01-.01-.02-.02s-.02-.01-.03-.01l-.38-.23-.83-.56-.18-.14-.26-.2-.29-.25a.47.47 0 0 0-.15-.13l-.31-.3a.426.426 0 0 0-.12-.11l-.31-.33c-.03-.06-.08-.09-.12-.14l-.26-.29a.684.684 0 0 0-.17-.21l-.18-.23c-.07-.11-.14-.22-.23-.32l-.11-.16-.49-.81-.44-.87c-.06-.16-.13-.33-.19-.49-.05-.13-.08-.26-.15-.38v-.01c-.04-.17-.09-.33-.15-.5-.03-.12-.06-.25-.1-.38-.02-.12-.05-.25-.07-.38-.01-.08-.05-.11-.13-.11-.46.01-.92.01-1.38.01-.12-.11-.23-.23-.31-.36v-.15c.03-.12.1-.22.17-.32.1-.08.18-.17.26-.27l.17-.17c.1-.08.19-.17.27-.28l.15-.15.11-.11c.11-.1.22-.21.32-.33.01-.01.03-.02.04-.04.53-.54 1.07-1.09 1.6-1.64.11-.11.22-.22.37-.29.15-.04.3-.02.44.02.1.05.19.12.28.19.05.06.1.11.15.16.36.38.73.76 1.1 1.13.3.32.61.63.92.94l.15.15.25.25.18.19c.07.09.15.18.25.25.05.06.09.14.11.22.02.08.02.17-.01.25l-.18.29c-.05.06-.1.07-.18.07H5.34c-.05 0-.09 0-.06.07.06.16.09.33.17.47.03.12.09.22.14.33l.06.13c.04.13.1.25.18.36.06.15.14.29.23.42 0 .01 0 .02.01.03 0 .01.01.02.02.02.18.32.39.62.63.89.05.09.11.16.18.22.06.08.12.16.2.22.07.09.15.17.23.24.06.07.12.14.2.19.07.08.14.15.23.21.09.09.19.17.29.23l.1.08c.3.23.61.45.94.61.25.16.52.29.79.39.16.09.34.14.51.2l.06.03h.06c.09.05.2.07.3.1h.01l.04.01c.12.05.24.08.37.09.18.06.37.08.55.11.12.02.23.05.35.04.14.04.29.02.43.04.14.03.29.02.44.01l.43-.01.35-.02c.17-.03.35-.03.52-.08h.05l.03-.01c.1 0 .2-.02.29-.05.17-.03.33-.07.49-.12.11-.02.22-.05.32-.1l.12-.04c.16-.03.32-.09.46-.18.29-.1.57-.24.84-.4.31-.15.6-.34.87-.55.08-.05.16-.11.23-.18l.08-.07c.05-.02.09-.05.12-.09.11-.09.22-.18.31-.29.05-.02.09-.06.12-.11.12-.1.22-.21.32-.32.05-.04.09-.08.12-.14.09-.09.18-.19.25-.3a.96.96 0 0 0 .18-.23.8.8 0 0 0 .15-.21c.05-.01.1.02.15.04.19.07.37.14.56.22l.43.17.04.01c.16.07.32.14.48.19.09.06.18.09.27.11.31.14.63.26.95.38.05.03.1.05.14.06.08.02.05.06.03.1l-.6.91c-.03.01-.04.03-.04.05l-.28.36c-.05.03-.09.08-.11.13l-.3.34-.14.16-.27.28c-.07.04-.12.09-.17.16l-.3.27-.16.15-.36.29c-.01 0-.02 0-.02.01-.01 0-.02.01-.02.02l-1 .7c-.07.02-.13.06-.19.11l-.2.12-.35.18-.26.14c-.06.01-.12.05-.17.08l-.46.21c-.13.03-.26.08-.38.15l-.46.16-.46.13-.78.19-.64.11a.892.892 0 0 0-.28.03c-.32.02-.63.06-.94.06-.01 0-.01.02-.02.03Z"/></g></svg>