<svg width="19.7" height="22" viewBox="0 0 19.7 22" fill="none" xmlns="http://www.w3.org/2000/svg"><path d="M9.8 5.5a2 2 0 1 1 0-4 2 2 0 0 1 2 2 2 2 0 0 1-2 2ZM2 6.5C1.3 6.5.6 5.8.6 5V2c0-.8.7-1.5 1.6-1.5h.5c.9 0 1.6.7 1.6 1.5v3c0 .8-.7 1.5-1.6 1.5h-.5ZM17 6.5c-.8 0-1.5-.7-1.5-1.5V2c0-.8.7-1.5 1.6-1.5h.5c.9 0 1.6.7 1.6 1.5v3c0 .8-.7 1.5-1.6 1.5h-.5ZM9.8 20.4a2 2 0 1 1 0-4 2 2 0 0 1 2 2 2 2 0 0 1-2 2ZM2 21.5c-.8 0-1.5-.7-1.5-1.6v-3c0-.8.7-1.5 1.6-1.5h.5c.9 0 1.6.7 1.6 1.6v2.9c0 .9-.7 1.6-1.6 1.6h-.5ZM17 21.4c-.8 0-1.5-.6-1.5-1.5v-3c0-.8.7-1.5 1.6-1.5h.5c.9 0 1.6.7 1.6 1.6v2.9c0 .9-.7 1.6-1.6 1.6h-.5ZM9.8 5.5v10.6M4.2 3.5h3.6M11.9 3.5h3.6M4.2 18.4h3.6M11.9 18.4h3.6" stroke="#141414"/></svg>