<svg width="17.1" height="18.6" viewBox="0 0 17.1 18.6" fill="none" xmlns="http://www.w3.org/2000/svg"><path d="M16 4.5 12.4.8l-1 1L13.4 4a2.5 2.5 0 0 0 .9 4.8c.3 0 .7 0 1-.2v7.2a1 1 0 0 1-1 1 1 1 0 0 1-1-1v-4.5a2 2 0 0 0-2-2h-1v-7a2 2 0 0 0-2-2h-6a2 2 0 0 0-2 2v16h10v-7.5h1.5v5a2.5 2.5 0 0 0 3.4 2.3c.4-.1.6-.3.9-.5a2.4 2.4 0 0 0 .7-1.8V6.3c0-.7-.3-1.3-.7-1.8Zm-7.7 6.3v5.5h-6v-7h6v1.5Zm0-3.5h-6v-5h6v5Zm6 0a1 1 0 0 1-1-1c0-.3.1-.5.3-.7.2-.2.4-.3.7-.3a1 1 0 0 1 1 1 1 1 0 0 1-1 1Z" fill="#141414"/><path d="M16 4.5 12.4.8l-1 1L13.4 4a2.5 2.5 0 0 0 .9 4.8c.3 0 .7 0 1-.2v7.2a1 1 0 0 1-1 1 1 1 0 0 1-1-1v-4.5a2 2 0 0 0-2-2h-1v-7a2 2 0 0 0-2-2h-6a2 2 0 0 0-2 2v16h10v-7.5h1.5v5a2.5 2.5 0 0 0 3.4 2.3c.4-.1.6-.3.9-.5a2.4 2.4 0 0 0 .7-1.8V6.3c0-.7-.3-1.3-.7-1.8ZM8.4 16.3h-6v-7h6v7Zm-6-9v-5h6v5h-6ZM13.6 7a1 1 0 0 1-.3-.7c0-.3.1-.5.3-.7.2-.2.4-.3.7-.3a1 1 0 0 1 1 1 1 1 0 0 1-1 1 1 1 0 0 1-.7-.3Z" stroke="#FFF" stroke-width=".6"/></svg>