<svg width="18" height="21" viewBox="0 0 18 21" fill="none" xmlns="http://www.w3.org/2000/svg"><path d="M17.5 11.5v.2c0 .2-.1.5-.3.7-.3.3-.8.4-1.2.3h-.3c-.4.3-.6.3-1 0l-.4-1.4v-.9c-.2.3-.2.6-.2 1-1.6-.6-3.2-1.5-3.7-4 0 .8.2 1.5.5 2l-.6 1c-.3.7-.4 1.4-.2 2 .2.8.6 1.4 1 2l1 2c.4.7.6 1.4.4 2.2 0 .6-.4 1.2-.8 1.8 0 0 0 .1-.2 0l-1.4-.1c-1.7-.3-3.2-1-4.6-2a8.4 8.4 0 0 1-3-4.2L2 12.8c-.6.2-1.1.7-1.5 1.4l-.1-.8v-1.5l.2-1.4c.7-2.5 2-4.4 4.4-5.4l.6-.2C5 4.8 4.5 5 3.9 5c.5-.9 1.3-1.5 2.2-2a7 7 0 0 1 5.5-.4v-.1c.2-.8.7-1.4 1.5-1.8l.6-.2h.2l-.5.7a2 2 0 0 0-.1 1.5c0-.7.4-1.1 1-1.4-.1.6 0 1 0 1.6.2.4.3.9 0 1.3h.1c.8 0 1.4.4 1.7 1.2l.4 1 .7.9c-.5 0-1 0-1.4-.5V7l.8 2.1v.2c.4.5.8 1 .9 1.6v.6Z" stroke="#000" stroke-linejoin="round"/></svg>