<svg width="19.5" height="19.5" viewBox="0 0 19.5 19.5" fill="none" xmlns="http://www.w3.org/2000/svg"><path d="M1.5 16.4V3C.8 3.1.2 2.4.2 1.7.3.9 1 .3 1.8.3A1.4 1.4 0 0 1 1.9 3v6.4h5V3.1A1.4 1.4 0 0 1 7 .2a1.4 1.4 0 0 1 .2 3v6.3h5V3.1a1.4 1.4 0 0 1 .1-2.9 1.4 1.4 0 0 1 .2 3v6.3h5V3.1a1.4 1.4 0 0 1 .2-2.9 1.4 1.4 0 0 1 .2 3v6.5c0 .2 0 .3-.2.3h-5.2v6.4a1.4 1.4 0 0 1-.2 2.9 1.5 1.5 0 0 1-.2-3V10h-5v6.5a1.4 1.4 0 0 1-.1 2.9 1.5 1.5 0 0 1-.3-3V10H2v6.5a1.4 1.4 0 1 1-.4 0ZM18.8 1.7a1 1 0 1 0-2 0 1 1 0 0 0 2 0Zm-7.4 16.1a1 1 0 1 0 2 0 1 1 0 0 0-2 0Zm1-15a1 1 0 1 0 0-2.1 1 1 0 0 0 0 2ZM6 17.7a1 1 0 1 0 2 0 1 1 0 0 0-2 0Zm1-15A1 1 0 1 0 7 .6a1 1 0 0 0 0 2ZM2.8 1.6a1 1 0 1 0-2 0 1 1 0 0 0 2 0Zm-1 17.1a1 1 0 1 0 0-2 1 1 0 0 0 0 2Z" fill="#141414"/><path d="M1.5 3.1C.8 3.1.2 2.4.2 1.7.3.9 1 .3 1.8.3A1.4 1.4 0 0 1 1.9 3v6.4h5V3.1A1.4 1.4 0 0 1 7 .2a1.4 1.4 0 0 1 .2 3v6.3h5V3.1a1.4 1.4 0 0 1 .1-2.9 1.4 1.4 0 0 1 .2 3v6.3h5V3.1a1.4 1.4 0 0 1 .2-2.9 1.4 1.4 0 0 1 .2 3v6.5c0 .2 0 .3-.2.3h-5.2v6.4a1.4 1.4 0 0 1-.2 2.9 1.5 1.5 0 0 1-.2-3V10h-5v6.5a1.4 1.4 0 0 1-.1 2.9 1.5 1.5 0 0 1-.3-3V10H2v6.5a1.4 1.4 0 1 1-.4 0V3ZM17.8.7a1 1 0 1 0 0 2 1 1 0 0 0 0-2Zm-5.4 18.1a1 1 0 1 0 0-2 1 1 0 0 0 0 2Zm1-17.1a1 1 0 1 0-2 0 1 1 0 0 0 2 0ZM7.2 18.8a1 1 0 1 0 0-2 1 1 0 0 0 0 2ZM8 1.7a1 1 0 1 0-2 0 1 1 0 0 0 2 0ZM1.7.7a1 1 0 1 0 0 2 1 1 0 0 0 0-2Zm1 17.1a1 1 0 1 0-2 0 1 1 0 0 0 2 0Z" stroke="#141414" stroke-width=".5"/></svg>