<svg width="418" height="36" viewBox="0 0 418 36" fill="none" xmlns="http://www.w3.org/2000/svg"><path d="M213 14.2a6.1 6.1 0 0 0-1.6-4.1 5 5 0 0 0-3.8-1.7h-23.7l2.2 3.8h21.5a1.7 1.7 0 0 1 1.7 1.2 2 2 0 0 1 0 1.5l-.4.7a1.8 1.8 0 0 1-1.3.5h-23.7v11.5h4.3v-7.7h16l4 7.7h4.7l-4.2-7.8c1.2-.3 2.3-1 3-2a6 6 0 0 0 1.2-3.6ZM142.6 16h-20.4V8.4H118v19.2h4.3v-7.7h20.4v7.7h4.3V8.4h-4.3v7.7ZM89.3 18a6.1 6.1 0 0 1 1.5-4c.5-.6 1.2-1 1.8-1.3a5 5 0 0 1 2-.5h17.2l2.2-3.8H94c-2.4 0-4.7 1-6.4 2.8a10 10 0 0 0-.8 12.6 8.5 8.5 0 0 0 7.2 3.8h17.8l2.2-3.8H94.7c-1.5 0-2.8-.7-3.8-1.7a6 6 0 0 1-1.6-4.1Zm150.6-9.6-10.2 8.4-10.2-8.4h-6.3l14 11.5v7.7h4.8v-7.7l14-11.5h-6Zm-84.6 5.7c0-.5.2-1 .5-1.3.3-.4.8-.6 1.3-.6h20.7l2.2-3.8h-23.7a5 5 0 0 0-3.8 1.7 5.8 5.8 0 0 0-1.5 4v13.5h26.8l2.2-3.8h-24.7v-3.9h18.2l2.2-3.8h-20.4v-2Zm-99.4-5A71 71 0 0 0 33.7 6h-.4l-4.7.1c-6.7.4-12.7 1.4-17.5 3C4.3 11.3 0 14.4 0 18c0 3 3 5.8 8.2 7.9A69.4 69.4 0 0 0 33.6 30a89.9 89.9 0 0 0 18.2-2c2.6-.5 5-1.3 7.1-2.1 5.1-2.1 8.2-4.9 8.2-7.9 0-3.6-4.3-6.7-11.2-9ZM14 21.4a4.5 4.5 0 0 1-4.8.5c-3-1.4-4.6-3.1-4.6-5 0-2.2 2.7-4.4 7.1-6C16.4 9.2 23.3 8 31.1 8h.3l1.4-.1-.9.2-.3.2c-1.2.5-2.8 1.6-3.3 2l-.1.1L15.8 20l-1.9 1.4Zm31.4 4a85.8 85.8 0 0 1-23.5 0c-3.3-.7-1.7-3-.8-4.1l.4-.5c3-3.2 6-6.1 9.3-8.9l.2-.2c.4-.3 1.6-1.1 2.6-1.1s2.3.8 2.7 1.2h.2v.1a100 100 0 0 1 9.7 9.4c.8 1 2.5 3.4-.8 4ZM58 21.8c-.8.4-1.7.6-2.5.5-.9-.1-1.7-.5-2.3-1L51.3 20 39 10.3l-.2-.1c-.5-.4-2-1.5-3.2-2l-.3-.1c-.3-.2-.6-.3-1-.3H36A65 65 0 0 1 55.5 11c4.4 1.6 7.1 3.8 7.1 6 0 1.9-1.7 3.6-4.6 5Z" fill="#A6192E"/><path stroke="#000" d="M256 0v36"/><path d="M284.5 1.7a74.7 74.7 0 0 1 2 2.2l6 23.2c.1.3.2.4 0 .6a1924.9 1924.9 0 0 0-6.7 6.6l-1.4-32.5h.1ZM281.6 34.4l-.4-.4-6.2-6.2c-.2-.2-.3-.4-.2-.7l6-23.1.4-.6 1.8-1.8-1.4 32.8ZM289 6.2l12.4 12.5-6.6 6.6-5.9-19ZM278.4 6.3l-5.8 19-6.6-6.6 12.4-12.4ZM396.5 17.7c0 3.1-1.9 6.9-6 8-3.2 1-6.3.6-8.9-1.8a8 8 0 0 1-2.5-5 8 8 0 0 1 6-8.7 9 9 0 0 1 9 2.3 7.8 7.8 0 0 1 2.4 5.2Zm-2.3.9c0-2-.3-3-.9-4.3-2.2-4.3-8.2-4.7-10.8-.6a8 8 0 0 0-.3 8 6 6 0 0 0 8.9 2.4c2.1-1.4 3-3.5 3.1-5.5ZM401 13.7v12.5h-1.2V9.7L413 22.4V9.9h1.1v16.4l-13.2-12.6ZM332.1 24.9v1.3H321.9c-.4 0-.4 0-.4-.4V10H332v1.3h-8.4V17h7.2v1h-7.2V25h8.4ZM309.3 19.7v6.5H307V9.8h5.4c1.8 0 3.3.6 4.4 2a4.8 4.8 0 0 1-2 7.5c-.8.3-1.6.4-2.4.4h-3.2Zm0-1h2.8c1.9-.1 3.4-1.6 3.5-3.7.2-1.6-.8-3.6-2.9-4-1-.1-2.1 0-3.2 0 0-.1-.1 0-.2 0v7.6ZM352 24.9h8.4v1.3h-10.6V9.9h10.5v1.3H352V17h7.2v1H352V25ZM362.6 9.9h14.8v1c0 .2-.2.3-.3.3h-6v15H369v-15H363c-.4 0-.5-.1-.5-.4v-1ZM335.6 9.9h2.2v15h8.4V26l-.3.2h-10.3V10Z" fill="#000"/></svg>