<svg width="358" height="40" viewBox="0 0 358 40" fill="none" xmlns="http://www.w3.org/2000/svg"><path d="M180.04 17.12c0-.57-.12-1.13-.34-1.66-.23-.52-.57-1-.99-1.4-.42-.4-.92-.72-1.47-.94-.56-.21-1.15-.32-1.74-.32h-19.97l1.82 2.88h18.15a1.537 1.537 0 0 1 1.11.4c.15.13.26.29.34.47.09.18.13.37.13.57 0 .19-.04.38-.13.56-.08.18-.19.34-.34.48-.15.13-.32.24-.51.31-.19.06-.4.1-.6.09h-19.97v8.64h3.64v-5.76h13.43l3.5 5.76h3.94l-3.56-5.87c1.01-.21 1.92-.74 2.56-1.51.65-.77 1-1.72 1-2.7Zm-59.43 1.44h-17.24V12.8h-3.63v14.4h3.63v-5.76h17.24v5.76h3.64V12.8h-3.64v5.76ZM75.49 20c0-.57.11-1.13.34-1.66.23-.52.57-1 .99-1.4.42-.4.92-.72 1.47-.94a4.92 4.92 0 0 1 1.74-.32h14.52l1.81-2.88H79.43c-2.01 0-3.94.75-5.36 2.1-1.42 1.35-2.22 3.18-2.22 5.1 0 1.55.53 3.07 1.52 4.32.7.89 1.62 1.62 2.67 2.12 1.05.5 2.21.76 3.39.76h15.12l1.81-2.88H80.03c-1.2 0-2.36-.46-3.21-1.27A4.221 4.221 0 0 1 75.49 20Zm127.36-7.2-8.63 6.31-8.64-6.31h-5.33l11.82 8.64v5.76h4.11v-5.76L208 12.8h-5.15Zm-71.57 4.28c.01-.38.17-.73.46-.99.28-.27.66-.41 1.05-.41h17.55l1.82-2.88h-19.97c-.6 0-1.19.11-1.74.32-.55.22-1.05.54-1.47.94-.43.4-.76.88-.99 1.4-.23.53-.35 1.09-.35 1.66V27.2h22.7l1.82-2.88h-20.88v-2.88h15.42l1.82-2.88h-17.24v-1.48ZM47.3 13.3c-4.04-1.15-9.12-1.94-14.75-2.21a89.97 89.97 0 0 0-4.03-.09h-.33c-1.36 0-2.71.03-4.02.09-5.63.27-10.71 1.05-14.75 2.21C3.63 14.94 0 17.34 0 20c0 2.25 2.61 4.31 6.92 5.89 1.75.64 3.78 1.2 6.03 1.66 1.95.4 3.92.71 5.9.93 3.16.35 6.33.52 9.51.51 3.18.01 6.35-.16 9.5-.51 1.99-.22 3.95-.53 5.91-.93 2.25-.46 4.28-1.02 6.03-1.66 4.31-1.58 6.92-3.64 6.92-5.89 0-2.67-3.64-5.06-9.42-6.71v.01Zm-35.53 9.24c-1.18.82-2.73.98-4.06.41-2.49-1.08-3.93-2.36-3.93-3.74 0-1.73 2.27-3.31 6.03-4.51 4.09-1.32 9.92-2.19 16.48-2.34l.27-.01c.39-.01.79-.01 1.19-.01-.27.04-.53.1-.77.19h-.01c-.09.03-.17.06-.25.1l-.01-.01c-.99.38-2.32 1.24-2.75 1.52l-.07.05-.07.05-10.49 7.23-1.56 1.07Zm26.52 2.96c-3.04.38-6.4.59-9.93.59-3.53 0-6.89-.21-9.92-.59-2.78-.47-1.44-2.26-.71-3.03.11-.12.23-.24.35-.35l.01-.01c2.46-2.38 5.08-4.61 7.85-6.67.06-.05.11-.09.17-.13.38-.27 1.36-.89 2.25-.89.89 0 1.87.62 2.25.89.05.04.1.07.15.11l.01.01.01.01c2.77 2.06 5.39 4.3 7.85 6.68.12.1.23.21.34.32.72.75 2.12 2.58-.68 3.06Zm10.72-2.55c-.66.27-1.38.38-2.09.31s-1.39-.32-1.97-.72l-1.56-1.07-10.49-7.23s-.01-.01-.04-.03l-.03-.02-.07-.05c-.43-.28-1.76-1.14-2.75-1.52l-.01.01c-.08-.04-.16-.07-.24-.1h-.02c-.24-.09-.5-.16-.77-.19.49 0 .97.01 1.46.02 6.56.15 12.39 1.02 16.47 2.34h.01c3.76 1.2 6.03 2.78 6.03 4.51 0 1.38-1.44 2.66-3.93 3.74Z" fill="#FFF"/><path stroke="#FFF" d="M218 5v30"/><path d="M243.63 6.25c.49.51 1 1.01 1.49 1.52.09.09.14.23.17.35 1.72 6.53 3.43 13.05 5.15 19.58.05.19.08.34-.09.51-1.81 1.79-3.61 3.59-5.41 5.39-.05.05-.11.09-.22.18-.39-9.2-.79-18.35-1.18-27.5.03 0 .06-.01.09-.02v-.01ZM241.14 33.8c-.14-.13-.22-.2-.3-.28-1.76-1.75-3.51-3.5-5.26-5.25-.17-.17-.23-.3-.16-.55 1.72-6.52 3.43-13.03 5.15-19.55.05-.17.15-.35.27-.48.46-.49.94-.96 1.49-1.5-.4 9.25-.79 18.39-1.19 27.61ZM247.35 10.05c3.56 3.56 7.06 7.05 10.54 10.53-1.83 1.84-3.69 3.69-5.56 5.56-1.65-5.34-3.31-10.69-4.98-16.09ZM238.5 10.1c-1.66 5.37-3.31 10.71-4.96 16.03-1.86-1.87-3.71-3.71-5.54-5.54 3.46-3.47 6.96-6.96 10.5-10.49ZM338.1 19.77c-.01 2.63-1.55 5.79-5.01 6.78-2.75.79-5.34.47-7.52-1.55-1.24-1.16-1.91-2.62-2.1-4.3-.36-3.35 1.81-6.55 5.1-7.33 2.85-.67 5.46-.17 7.59 1.99 1.26 1.27 1.88 2.85 1.94 4.41Zm-1.91.74c0-1.65-.22-2.59-.75-3.6-1.9-3.65-6.92-3.97-9.08-.54-1.36 2.17-1.41 4.49-.3 6.78 1.39 2.86 4.88 3.79 7.52 2.03 1.82-1.22 2.56-3.01 2.61-4.67ZM341.87 16.35v10.56h-.92V13.03c3.74 3.57 7.41 7.08 11.13 10.65V13.14h.92V27l-11.13-10.65ZM283.79 25.8v1.11c-.11.01-.21.03-.3.03-2.79 0-5.57-.01-8.35 0-.28 0-.34-.08-.34-.34.01-4.39.01-8.78.01-13.16 0-.09 0-.18.01-.3h8.96v1.09h-7.1v4.89h6.08v.94h-6.07v5.74h7.1ZM264.51 21.47v5.44h-1.8V13.12h.31c1.43 0 2.86-.02 4.29 0 1.42.03 2.68.46 3.63 1.57 1.8 2.12.95 5.34-1.67 6.38-.66.27-1.35.4-2.07.4h-2.69Zm.01-.92c.79 0 1.57.02 2.34-.01 1.65-.06 2.89-1.3 3.03-3.04.1-1.36-.69-3.03-2.46-3.36-.87-.17-1.79-.1-2.68-.13-.08 0-.15.02-.23.03v6.51ZM300.5 25.81h7.13v1.11h-8.95V13.15h8.94v1.08h-7.11v4.9h6.1v.93h-6.11v5.75ZM309.56 13.13h12.48c0 .32.01.63-.02.94 0 .07-.18.16-.28.17-.76.01-1.51 0-2.27 0h-2.75v12.67h-1.82V14.24h-.39c-1.53 0-3.06 0-4.59.01-.28 0-.39-.07-.36-.36.02-.24 0-.49 0-.76ZM286.76 13.13h1.8V25.8h7.17c0 .34.02.65-.01.96-.01.07-.19.17-.29.17-.8.01-1.6.01-2.4.01h-6.27V13.13Z" fill="#FFF"/></svg>