<svg width="208" height="18" viewBox="0 0 208 18" fill="none" xmlns="http://www.w3.org/2000/svg"><path d="M180.04 6.12c0-.57-.12-1.13-.34-1.66-.23-.52-.57-1-.99-1.4-.42-.4-.92-.72-1.47-.94-.56-.21-1.15-.32-1.74-.32h-19.97l1.82 2.88h18.15a1.537 1.537 0 0 1 1.11.4c.15.13.26.29.34.47.09.18.13.37.13.57 0 .19-.04.38-.13.56-.08.18-.19.34-.34.48-.15.13-.32.24-.51.31-.19.06-.4.1-.6.09h-19.97v8.64h3.64v-5.76h13.43l3.5 5.76h3.94l-3.56-5.87c1.01-.21 1.92-.74 2.56-1.51.65-.77 1-1.72 1-2.7Zm-59.43 1.44h-17.24V1.8h-3.63v14.4h3.63v-5.76h17.24v5.76h3.64V1.8h-3.64v5.76ZM75.49 9c0-.57.11-1.13.34-1.66.23-.52.57-1 .99-1.4.42-.4.92-.72 1.47-.94a4.92 4.92 0 0 1 1.74-.32h14.52l1.81-2.88H79.43c-2.01 0-3.94.75-5.36 2.1-1.42 1.35-2.22 3.18-2.22 5.09 0 1.56.53 3.08 1.52 4.33.7.89 1.62 1.62 2.67 2.12 1.05.5 2.21.76 3.39.76h15.12l1.81-2.88H80.03c-1.2 0-2.36-.46-3.21-1.27A4.221 4.221 0 0 1 75.49 9Zm127.36-7.2-8.63 6.31-8.64-6.31h-5.33l11.82 8.64v5.76h4.11v-5.76L208 1.8h-5.15Zm-71.57 4.28c.01-.38.17-.73.46-.99.28-.27.66-.41 1.05-.41h17.55l1.82-2.88h-19.97c-.6-.01-1.19.11-1.74.32-.55.22-1.05.54-1.47.94-.43.4-.76.88-.99 1.4-.23.53-.35 1.09-.35 1.66V16.2h22.7l1.82-2.88h-20.88v-2.88h15.42l1.82-2.88h-17.24V6.08ZM47.3 2.3C43.26 1.15 38.18.36 32.55.09A89.97 89.97 0 0 0 28.52 0h-.33c-1.36 0-2.71.03-4.02.09C18.54.36 13.46 1.14 9.42 2.3 3.63 3.94 0 6.34 0 8.99c0 2.26 2.61 4.32 6.92 5.9 1.75.64 3.78 1.2 6.03 1.66 1.95.4 3.92.71 5.9.93 3.16.35 6.33.52 9.51.51 3.18.01 6.35-.16 9.5-.51 1.99-.22 3.95-.53 5.91-.93 2.25-.46 4.28-1.02 6.03-1.66 4.31-1.58 6.92-3.64 6.92-5.9 0-2.66-3.64-5.05-9.42-6.7v.01Zm-35.53 9.24c-1.18.82-2.73.98-4.06.41-2.49-1.08-3.93-2.36-3.93-3.74 0-1.73 2.27-3.31 6.03-4.51 4.09-1.32 9.92-2.19 16.48-2.34l.27-.01c.39-.01.79-.01 1.19-.01-.27.04-.53.1-.77.19h-.01c-.09.03-.17.06-.25.1l-.01-.01c-.99.38-2.32 1.24-2.75 1.52l-.07.05-.07.05-10.49 7.23-1.56 1.07Zm26.52 2.96c-3.04.38-6.4.59-9.93.59-3.53 0-6.89-.21-9.92-.59-2.78-.47-1.44-2.26-.71-3.03.11-.12.23-.24.35-.35l.01-.01c2.46-2.38 5.08-4.61 7.85-6.67.06-.05.11-.09.17-.13.38-.27 1.36-.89 2.25-.89.89 0 1.87.62 2.25.89.05.04.1.07.15.11l.01.01.01.01c2.77 2.06 5.39 4.3 7.85 6.68.12.1.23.21.34.32.72.75 2.12 2.58-.68 3.06Zm10.72-2.55c-.66.27-1.38.38-2.09.31s-1.39-.32-1.97-.72l-1.56-1.07L32.9 3.24s-.01-.01-.04-.03l-.03-.02-.07-.05C32.33 2.86 31 2 30.01 1.62l-.01.01c-.08-.04-.16-.07-.24-.1h-.02c-.24-.09-.5-.16-.77-.19.49 0 .97.01 1.46.02 6.56.15 12.39 1.02 16.47 2.34h.01c3.76 1.2 6.03 2.78 6.03 4.51 0 1.38-1.44 2.66-3.93 3.74Z" fill="#FFF"/></svg>